<?xml version="1.0" standalone="no"?>
<!DOCTYPE svg PUBLIC "-//W3C//DTD SVG 20010904//EN"
 "http://www.w3.org/TR/2001/REC-SVG-20010904/DTD/svg10.dtd">
<svg version="1.0" xmlns="http://www.w3.org/2000/svg"
 width="500.000000pt" height="500.000000pt" viewBox="0 0 500.000000 500.000000"
 preserveAspectRatio="xMidYMid meet">

<g transform="translate(0.000000,500.000000) scale(0.100000,-0.100000)"
fill="#000000" stroke="none">
<path d="M1490 3330 c0 -5 15 -12 34 -15 50 -10 91 -38 109 -78 15 -30 17 -75
17 -326 l0 -291 70 0 70 0 0 326 0 326 168 -4 c160 -3 169 -4 213 -30 77 -45
125 -134 136 -255 5 -54 4 -63 -11 -63 -9 0 -16 -4 -16 -10 0 -5 7 -10 16 -10
13 0 15 -8 9 -42 -15 -99 -79 -185 -167 -223 -31 -14 -27 -14 82 -15 l116 0
36 48 c19 26 43 61 51 77 16 30 16 29 17 -47 l0 -78 70 0 70 0 0 115 0 115
135 0 c100 0 144 -4 164 -15 33 -16 61 -69 61 -114 0 -17 5 -31 10 -31 6 0 10
51 10 134 l0 133 -57 -14 c-36 -9 -131 -17 -245 -20 l-188 -5 0 50 c0 181
-136 331 -327 362 -77 13 -653 13 -653 0z"/>
<path d="M1072 2500 c0 -45 2 -49 7 -22 l6 34 23 -31 c12 -17 27 -31 32 -31
13 0 13 87 0 95 -6 4 -10 -7 -10 -27 l-1 -33 -29 35 -29 35 1 -55z"/>
<path d="M1279 2506 c-11 -26 -17 -51 -13 -54 3 -4 9 -1 11 6 5 14 53 17 53 2
0 -5 4 -10 10 -10 10 0 -16 77 -31 94 -5 6 -18 -11 -30 -38z m31 -1 c0 -8 -4
-15 -10 -15 -5 0 -7 7 -4 15 4 8 8 15 10 15 2 0 4 -7 4 -15z"/>
<path d="M1450 2540 c0 -5 7 -10 15 -10 11 0 15 -11 15 -40 0 -22 5 -40 10
-40 6 0 10 18 10 40 0 30 4 40 16 40 8 0 12 5 9 10 -3 6 -22 10 -41 10 -19 0
-34 -4 -34 -10z"/>
<path d="M1649 2506 c-11 -26 -17 -51 -13 -54 3 -4 9 -1 11 6 5 14 53 17 53 2
0 -5 4 -10 10 -10 10 0 -16 77 -31 94 -5 6 -18 -11 -30 -38z m31 -1 c0 -8 -4
-15 -10 -15 -5 0 -7 7 -4 15 4 8 8 15 10 15 2 0 4 -7 4 -15z"/>
<path d="M1830 2501 c0 -50 1 -51 30 -51 17 0 30 5 30 10 0 6 -9 10 -20 10
-16 0 -20 7 -20 34 0 19 -4 38 -10 41 -6 4 -10 -13 -10 -44z"/>
<path d="M2000 2501 c0 -28 5 -51 10 -51 6 0 10 20 10 44 0 25 -4 48 -10 51
-6 4 -10 -13 -10 -44z"/>
<path d="M2150 2503 c-11 -25 -17 -49 -14 -52 4 -3 9 0 11 7 3 6 15 12 28 12
13 0 25 -6 28 -12 2 -7 7 -10 11 -7 7 6 -29 99 -38 99 -3 0 -14 -21 -26 -47z
m34 2 c3 -8 1 -15 -4 -15 -6 0 -10 7 -10 15 0 8 2 15 4 15 2 0 6 -7 10 -15z"/>
<path d="M2471 2498 c1 -41 3 -46 8 -24 l6 30 12 -27 c15 -33 27 -34 41 -4
l11 22 0 -22 c2 -47 21 -21 21 28 0 55 -10 57 -36 6 l-17 -31 -19 37 c-10 20
-21 37 -23 37 -3 0 -4 -24 -4 -52z"/>
<path d="M2697 2543 c-4 -3 -7 -26 -7 -50 0 -43 0 -43 36 -43 21 0 33 4 29 10
-3 6 -15 10 -26 10 -10 0 -19 5 -19 10 0 6 9 10 20 10 11 0 20 5 20 10 0 6 -9
10 -20 10 -11 0 -20 5 -20 10 0 6 9 10 20 10 11 0 20 5 20 10 0 11 -43 14 -53
3z"/>
<path d="M2870 2501 c0 -49 1 -51 28 -51 35 0 52 16 52 51 0 32 -3 34 -47 44
l-33 7 0 -51z m58 12 c13 -24 4 -43 -19 -43 -14 0 -19 7 -19 30 0 34 23 41 38
13z"/>
<path d="M3077 2543 c-11 -10 -8 -93 3 -93 6 0 10 10 10 22 l0 22 16 -22 c8
-12 22 -22 30 -22 19 0 18 16 -1 24 -13 5 -13 9 -3 26 11 18 10 23 -6 36 -21
15 -39 18 -49 7z m41 -25 c-6 -18 -28 -21 -28 -4 0 9 7 16 16 16 9 0 14 -5 12
-12z"/>
<path d="M3269 2506 c-11 -26 -17 -51 -13 -54 3 -4 9 -1 11 6 5 14 53 17 53 2
0 -5 4 -10 10 -10 10 0 -16 77 -31 94 -5 6 -18 -11 -30 -38z m31 -1 c0 -8 -4
-15 -10 -15 -5 0 -7 7 -4 15 4 8 8 15 10 15 2 0 4 -7 4 -15z"/>
<path d="M3450 2503 c0 -29 5 -53 10 -53 6 0 10 12 10 28 l1 27 22 -27 c13
-16 26 -28 30 -28 4 0 7 20 7 45 0 25 -4 45 -10 45 -5 0 -10 -12 -10 -27 l0
-27 -30 34 -29 35 -1 -52z"/>
<path d="M3673 2539 c-27 -10 -32 -59 -8 -79 36 -30 88 16 66 58 -13 25 -31
31 -58 21z m42 -29 c8 -26 -1 -40 -26 -40 -13 0 -19 7 -19 23 0 40 34 53 45
17z"/>
<path d="M1650 2184 c0 -159 -3 -202 -16 -230 -19 -41 -70 -74 -113 -74 -21 0
-31 -5 -31 -15 0 -13 32 -15 230 -15 198 0 230 2 230 15 0 11 -11 15 -41 15
-35 0 -48 6 -80 39 l-39 39 0 211 0 211 -70 0 -70 0 0 -196z"/>
<path d="M2080 2374 c0 -3 81 -95 180 -204 l180 -198 0 -207 c0 -191 -2 -210
-20 -240 -22 -36 -73 -65 -114 -65 -14 0 -26 -4 -26 -10 0 -7 178 -10 514 -10
511 0 515 0 521 21 4 11 18 24 31 30 14 5 22 14 19 19 -4 6 -11 8 -16 5 -15
-10 -11 9 36 139 47 135 42 172 -9 63 -34 -72 -127 -170 -170 -181 -24 -6 -46
1 -110 33 -106 52 -210 138 -378 309 l-138 140 0 61 0 62 221 -3 221 -3 29
-33 c20 -22 29 -43 29 -67 0 -25 5 -35 15 -35 13 0 15 23 13 168 -2 103 -7
167 -13 167 -5 0 -11 -13 -13 -30 -1 -16 -8 -41 -14 -53 -24 -47 -51 -52 -278
-52 l-210 0 0 90 0 90 -70 0 -69 0 -3 -101 -3 -101 -90 101 -90 101 -87 0
c-49 0 -88 -3 -88 -6z m694 -743 c41 -32 105 -74 141 -92 36 -17 65 -33 65
-35 0 -2 -90 -4 -200 -4 l-200 0 0 155 0 155 59 -59 c33 -33 94 -87 135 -120z"/>
</g>
</svg>
